<?xml version="1.0" encoding="UTF-8" standalone="no" ?>
<!DOCTYPE svg PUBLIC "-//W3C//DTD SVG 1.1//EN" "http://www.w3.org/Graphics/SVG/1.1/DTD/svg11.dtd">
<svg xmlns="http://www.w3.org/2000/svg" xmlns:xlink="http://www.w3.org/1999/xlink" version="1.1" width="256" height="256" viewBox="0 0 256 256" xml:space="preserve">
  <rect x="0" y="0" width="100%" height="100%" fill="transparent"/>
  <g transform="matrix(0.15 0 0 0.15 128 128)" id="ba3fec24-9dca-419a-b81a-370ecf439e35">
    <path style="stroke: rgb(0,0,0); stroke-width: 0; stroke-dasharray: none; stroke-linecap: butt; stroke-dashoffset: 0; stroke-linejoin: miter; stroke-miterlimit: 4; fill: rgb(102,108,255); fill-rule: nonzero; opacity: 1;" vector-effect="non-scaling-stroke" transform=" translate(-1210.12, -707.64)" d="M 1596.45 793.46 C 1593.53 581.6800000000001 1417.89 410.41 1206.1 412.57000000000005 C 1134.53 413.30000000000007 1067.6299999999999 433.49000000000007 1010.4199999999998 468.1 L 848.36 235.8 C 840.79 224.95000000000002 823.75 230.31 823.75 243.54000000000002 L 823.75 777.8 L 824.27 778.75 C 823.93 785.43 823.75 792.15 823.75 798.91 C 823.75 1012.3 996.73 1185.28 1210.12 1185.28 C 1425.32 1185.29 1599.43 1009.35 1596.45 793.46 z M 1402.21 1079.43 C 1402.1100000000001 1085.4 1389.66 1087.7 1386.32 1082.74 L 1306.8999999999999 964.82 C 1278.4799999999998 981.44 1245.4299999999998 991 1210.12 991 C 1101.4899999999998 991 1013.9199999999998 900.83 1018.1799999999998 791.25 C 1022.0099999999999 692.8 1101.4199999999998 612.23 1199.8199999999997 607.09 C 1307.2399999999998 601.48 1396.6599999999996 684.1700000000001 1401.9699999999998 789.04 L 1402.2199999999998 789.49" stroke-linecap="round"/>
  </g>
</svg>
