<svg version="1.1" xmlns="http://www.w3.org/2000/svg" xmlns:xlink="http://www.w3.org/1999/xlink" width="64" height="64" viewBox="0,0,256,256"><g transform="translate(38.4,38.4) scale(0.7,0.7)"><g fill="none" fill-rule="nonzero" stroke="none" stroke-width="1" stroke-linecap="butt" stroke-linejoin="miter" stroke-miterlimit="10" stroke-dasharray="" stroke-dashoffset="0" font-family="none" font-weight="none" font-size="none" text-anchor="none" style="mix-blend-mode: normal"><g><g transform="translate(25.6,25.6) scale(0.8,0.8)"><g><g transform="scale(4,4)"><g><path d="M32,0h32v8l-4,4l4,4v8l-4,4l4,4v8l-4,4l4,4v8l-32,4l-32,-4v-8l4,-4l-4,-4v-8z" fill="#eeeeee"></path><path d="M28,8h36v8h-36zM28,24h36v8h-32zM0,40h64v8h-64zM0,56h64v8h-64z" fill="#d80027"></path><path d="M0,0h32v32h-32z" fill="#0052b4"></path><path d="M23.375,30.375l7.125,-5.125h-8.75l7.125,5.125l-2.75,-8.375zM13.25,30.375l7.125,-5.125h-8.75l7.125,5.125l-2.75,-8.375zM3.125,30.375l7.125,-5.125h-8.75l7.125,5.125l-2.75,-8.375zM23.375,20.25l7.125,-5.125h-8.75l7.125,5.125l-2.75,-8.375zM13.25,20.25l7.125,-5.125h-8.75l7.125,5.125l-2.75,-8.375zM3.125,20.25l7.125,-5.125h-8.75l7.125,5.125l-2.75,-8.375zM23.375,10l7.125,-5.125h-8.751l7.125,5.125l-2.75,-8.375zM13.25,10l7.125,-5.125h-8.749l7.125,5.125l-2.751,-8.375zM3.125,10l7.125,-5.125h-8.75l7.125,5.125l-2.75,-8.375z" fill="#eeeeee"></path></g></g></g></g></g></g></g></svg>