<svg version="1.1" xmlns="http://www.w3.org/2000/svg" xmlns:xlink="http://www.w3.org/1999/xlink" width="64" height="64" viewBox="0,0,256,256"><g transform="translate(38.4,38.4) scale(0.7,0.7)"><g fill="none" fill-rule="nonzero" stroke="none" stroke-width="1" stroke-linecap="butt" stroke-linejoin="miter" stroke-miterlimit="10" stroke-dasharray="" stroke-dashoffset="0" font-family="none" font-weight="none" font-size="none" text-anchor="none" style="mix-blend-mode: normal"><g><g transform="translate(25.6,25.6) scale(0.8,0.8)"><g><g transform="scale(4,4)"><g><path d="M0,16l32,-4l32,4v32l-32,4l-32,-4z" fill="#ffda44"></path><path d="M0,0h64v16h-64zM0,48h64v16h-64z" fill="#d80027"></path><g fill="#eeeeee"><path d="M18,38h-2v-10h2zM34,38h2v-10h-2z"></path><path d="M32,37c0,2.20914 -2.68629,4 -6,4c-3.31371,0 -6,-1.79086 -6,-4c0,-2.20914 2.68629,-4 6,-4c3.31371,0 6,1.79086 6,4z"></path></g><g fill="#d80027"><path d="M17,24v0c0.55228,0 1,0.44772 1,1v1c0,0.55228 -0.44772,1 -1,1v0c-0.55228,0 -1,-0.44772 -1,-1v-1c0,-0.55228 0.44772,-1 1,-1z"></path><path d="M35,24v0c0.55228,0 1,0.44772 1,1v1c0,0.55228 -0.44772,1 -1,1v0c-0.55228,0 -1,-0.44772 -1,-1v-1c0,-0.55228 0.44772,-1 1,-1z"></path><path d="M26,34v3c0,1.65685 1.34315,3 3,3c1.65685,0 3,-1.34315 3,-3v-3h-3z"></path></g><path d="M16,26h2c0.55228,0 1,0.44772 1,1v0c0,0.55228 -0.44772,1 -1,1h-2c-0.55228,0 -1,-0.44772 -1,-1v0c0,-0.55228 0.44772,-1 1,-1z" fill="#ff9811"></path><path d="M34,26h2c0.55228,0 1,0.44772 1,1v0c0,0.55228 -0.44772,1 -1,1h-2c-0.55228,0 -1,-0.44772 -1,-1v0c0,-0.55228 0.44772,-1 1,-1z" fill="#ff9811"></path><path d="M16,38h2c0.55228,0 1,0.44772 1,1v0c0,0.55228 -0.44772,1 -1,1h-2c-0.55228,0 -1,-0.44772 -1,-1v0c0,-0.55228 0.44772,-1 1,-1z" fill="#ff9811"></path><path d="M34,38h2c0.55228,0 1,0.44772 1,1v0c0,0.55228 -0.44772,1 -1,1h-2c-0.55228,0 -1,-0.44772 -1,-1v0c0,-0.55228 0.44772,-1 1,-1z" fill="#ff9811"></path><path d="M20,34v3c0,1 0.5,1.75 1.125,2.375l0.625,-0.75l0.625,1.25c0.41059,0.10065 0.83941,0.10065 1.25,0l0.625,-1.25l0.625,0.75c0.75,-0.625 1.125,-1.375 1.125,-2.375v-3h-1.125l-0.625,1l-0.625,-1h-1.25l-0.625,1l-0.625,-1z" fill="#ff9811"></path><path d="M15.25,31.5h21.5M15.25,34.5h3.5M33.25,34.5h3.5" fill="#000000"></path><path d="M15.25,31c-0.27614,0 -0.5,0.22386 -0.5,0.5c0,0.27614 0.22386,0.5 0.5,0.5h21.5c0.27614,0 0.5,-0.22386 0.5,-0.5c0,-0.27614 -0.22386,-0.5 -0.5,-0.5zM15.25,34c-0.27614,0 -0.5,0.22386 -0.5,0.5c0,0.27614 0.22386,0.5 0.5,0.5h3.5c0.27614,0 0.5,-0.22386 0.5,-0.5c0,-0.27614 -0.22386,-0.5 -0.5,-0.5zM33.25,34c-0.27614,0 -0.5,0.22386 -0.5,0.5c0,0.27614 0.22386,0.5 0.5,0.5h3.5c0.27614,0 0.5,-0.22386 0.5,-0.5c0,-0.27614 -0.22386,-0.5 -0.5,-0.5z" fill="#d80027"></path><path d="M24.5,21c-0.875,0 -1.625,0.625 -1.875,1.375l-0.625,-0.125c-1.125,0 -2,0.875 -2,2c0,1.125 0.875,2 2,2c0.875,0 1.625,-0.5 1.875,-1.375c0.74486,0.26869 1.5781,0.07264 2.125,-0.5c0.5469,0.57264 1.38014,0.76869 2.125,0.5c0.2481,0.77442 0.94039,1.32153 1.75118,1.38393c0.81079,0.0624 1.57865,-0.37233 1.94232,-1.09968c0.36367,-0.72734 0.25074,-1.60247 -0.28565,-2.21366c-0.5364,-0.6112 -1.38946,-0.83677 -2.15785,-0.57059c-0.24523,-0.65923 -0.81872,-1.14118 -1.51032,-1.26925c-0.6916,-0.12807 -1.39965,0.11656 -1.86468,0.64425c-0.37533,-0.5 -0.87533,-0.75 -1.5,-0.75M24.5,22c0.625,0 1,0.5 1,1c0,0.625 -0.375,1 -1,1c-0.5,0 -1,-0.375 -1,-1c0,-0.5 0.5,-1 1,-1M27.5,22c0.625,0 1,0.5 1,1c0,0.625 -0.375,1 -1,1c-0.5,0 -1,-0.375 -1,-1c0,-0.5 0.5,-1 1,-1M22,23.25l0.5,0.125l0.5,1c0,0.5 -0.5,0.875 -1,0.875c-0.5,0 -1,-0.375 -1,-1c0,-0.5 0.5,-1 1,-1M30,23.25c0.625,0 1,0.5 1,1c0,0.625 -0.375,1 -1,1c-0.5,0 -1,-0.375 -1,-0.875l0.5,-1z" fill="#eeeeee"></path><path d="M27.5,35.5v1.5c0,0.875 0.625,1.5 1.5,1.5c0.875,0 1.5,-0.625 1.5,-1.5v-1.5z" fill="none"></path><path d="M25,20h2v4h-2z" fill="#ff9811"></path><path d="M26,28h6v6h-6z" fill="#eeeeee"></path><path d="M31,26l-1,1h-8l-1,-1c0,-1.625 2.25,-3 5,-3c2.75,0 5,1.375 5,3M20,28h6v6h-6z" fill="#d80027"></path><path d="M29,29v0c0.69036,0 1.25,0.55964 1.25,1.25v1.5c0,0.69036 -0.55964,1.25 -1.25,1.25v0c-0.69036,0 -1.25,-0.55964 -1.25,-1.25v-1.5c0,-0.69036 0.55964,-1.25 1.25,-1.25z" fill="#d80027"></path><path d="M21,29v1h1v2h-1v1h4v-1h-1v-2h1v-1zM22,27h8v1h-8z" fill="#ff9811"></path><g fill="#ffda44"><path d="M24,25.25c0,0.41421 -0.33579,0.75 -0.75,0.75c-0.41421,0 -0.75,-0.33579 -0.75,-0.75c0,-0.41421 0.33579,-0.75 0.75,-0.75c0.41421,0 0.75,0.33579 0.75,0.75z"></path><path d="M26.75,25.25c0,0.41421 -0.33579,0.75 -0.75,0.75c-0.41421,0 -0.75,-0.33579 -0.75,-0.75c0,-0.41421 0.33579,-0.75 0.75,-0.75c0.41421,0 0.75,0.33579 0.75,0.75z"></path><path d="M29.5,25.25c0,0.41421 -0.33579,0.75 -0.75,0.75c-0.41421,0 -0.75,-0.33579 -0.75,-0.75c0,-0.41421 0.33579,-0.75 0.75,-0.75c0.41421,0 0.75,0.33579 0.75,0.75z"></path></g><path d="M21.125,34v5.375c0.37341,0.25921 0.80083,0.43019 1.25,0.5v-5.875zM23.625,34v5.875c0.44917,-0.06981 0.87659,-0.24079 1.25,-0.5v-5.375z" fill="#d80027"></path><g fill="#338af3"><path d="M28,34c0,1.10457 -0.89543,2 -2,2c-1.10457,0 -2,-0.89543 -2,-2c0,-1.10457 0.89543,-2 2,-2c1.10457,0 2,0.89543 2,2z"></path><path d="M34,40h2c0.55228,0 1,0.44772 1,1v0c0,0.55228 -0.44772,1 -1,1h-2c-0.55228,0 -1,-0.44772 -1,-1v0c0,-0.55228 0.44772,-1 1,-1z"></path><path d="M16,40h2c0.55228,0 1,0.44772 1,1v0c0,0.55228 -0.44772,1 -1,1h-2c-0.55228,0 -1,-0.44772 -1,-1v0c0,-0.55228 0.44772,-1 1,-1z"></path></g></g></g></g></g></g></g></g></svg>