<svg version="1.1" xmlns="http://www.w3.org/2000/svg" xmlns:xlink="http://www.w3.org/1999/xlink" width="64" height="64" viewBox="0,0,256,256"><g transform="translate(38.4,38.4) scale(0.7,0.7)"><g fill="none" fill-rule="nonzero" stroke="none" stroke-width="1" stroke-linecap="butt" stroke-linejoin="miter" stroke-miterlimit="10" stroke-dasharray="" stroke-dashoffset="0" font-family="none" font-weight="none" font-size="none" text-anchor="none" style="mix-blend-mode: normal"><g><g transform="translate(25.6,25.6) scale(0.8,0.8)"><g><g transform="scale(4,4)"><g><path d="M0,0h64v64h-64z" fill="#d80027"></path><path d="M17.512,19.475l2.763,8.5h8.938l-7.225,5.263l2.763,8.5l-7.237,-5.25l-7.237,5.25l2.775,-8.5l-7.237,-5.263h8.935zM37.937,49.562l-2.112,-2.6l-3.125,1.212l1.813,-2.813l-2.112,-2.612l3.237,0.863l1.825,-2.813l0.175,3.35l3.25,0.863l-3.138,1.2zM42.137,41.937l1,-3.2l-2.737,-1.938l3.35,-0.05l0.988,-3.2l1.087,3.175l3.35,-0.037l-2.688,2l1.075,3.175l-2.737,-1.938zM47.799,23.487l-1.474,3.013l2.4,2.337l-3.313,-0.475l-1.475,3l-0.575,-3.3l-3.325,-0.475l2.975,-1.563l-0.575,-3.313l2.4,2.337zM38.024,14.362l-0.25,3.337l3.112,1.262l-3.263,0.8l-0.237,3.35l-1.762,-2.85l-3.263,0.8l2.163,-2.563l-1.775,-2.837l3.112,1.262z" fill="#ffda44"></path></g></g></g></g></g></g></g></svg>