<svg version="1.1" xmlns="http://www.w3.org/2000/svg" xmlns:xlink="http://www.w3.org/1999/xlink" width="64" height="64" viewBox="0,0,256,256"><g transform="translate(38.4,38.4) scale(0.7,0.7)"><g fill="none" fill-rule="nonzero" stroke="none" stroke-width="1" stroke-linecap="butt" stroke-linejoin="miter" stroke-miterlimit="10" stroke-dasharray="" stroke-dashoffset="0" font-family="none" font-weight="none" font-size="none" text-anchor="none" style="mix-blend-mode: normal"><g><g transform="translate(25.6,25.6) scale(0.8,0.8)"><g><g transform="scale(4,4)"><g><path d="M0,32l32,-32h32v64h-64z" fill="#d80027"></path><path d="M32,32v-32h-32v32z" fill="#0052b4"></path><path d="M27.825,18.725l-3.913,1.837l2.087,3.788l-4.25,-0.813l-0.537,4.287l-2.95,-3.15l-2.962,3.15l-0.537,-4.287l-4.25,0.813l2.087,-3.788l-3.9,-1.837l3.9,-1.837l-2.075,-3.788l4.25,0.813l0.525,-4.287l2.962,3.163l2.95,-3.164l0.537,4.287l4.25,-0.813l-2.087,3.788z" fill="#eeeeee"></path><path d="M24.225,18.725c0,3.29327 -2.66973,5.963 -5.963,5.963c-3.29288,-0.00055 -5.962,-2.67012 -5.962,-5.963c0.04226,-3.26288 2.69934,-5.88578 5.9625,-5.88578c3.26316,0 5.92024,2.6229 5.9625,5.88578z" fill="#0052b4"></path><path d="M23.45,18.725c0,2.86525 -2.32275,5.188 -5.188,5.188c-2.86486,-0.00055 -5.187,-2.32314 -5.187,-5.188c0.03939,-2.83689 2.35034,-5.11597 5.1875,-5.11597c2.83716,0 5.14811,2.27908 5.1875,5.11597z" fill="#eeeeee"></path></g></g></g></g></g></g></g></svg>