<?xml version="1.0" standalone="no"?>
<!DOCTYPE svg PUBLIC "-//W3C//DTD SVG 20010904//EN"
 "http://www.w3.org/TR/2001/REC-SVG-20010904/DTD/svg10.dtd">
<svg version="1.0" xmlns="http://www.w3.org/2000/svg"
 width="256.000000pt" height="256.000000pt" viewBox="0 0 256.000000 256.000000"
 preserveAspectRatio="xMidYMid meet">
<metadata>
Created by potrace 1.14, written by Peter Selinger 2001-2017
</metadata>
<g transform="translate(0.000000,256.000000) scale(0.100000,-0.100000)"
fill="#000000" stroke="none">
<path d="M707 1983 c-4 -3 -7 -205 -7 -447 0 -494 4 -528 66 -655 68 -137 215
-255 370 -296 71 -19 212 -21 280 -4 217 52 386 232 430 457 18 92 17 139 -1
225 -22 107 -70 192 -155 278 -179 182 -428 229 -658 124 l-53 -24 -27 38
c-15 20 -70 99 -122 174 -89 128 -107 147 -123 130z m713 -589 c54 -29 97 -78
128 -144 14 -29 16 -75 17 -284 0 -158 -4 -250 -10 -252 -5 -2 -36 37 -69 86
-32 50 -60 90 -63 90 -2 0 -20 -7 -41 -16 -21 -9 -65 -16 -102 -16 -118 -1
-213 61 -263 171 -29 63 -29 169 0 233 68 149 257 211 403 132z"/>
</g>
</svg>
