<?xml version="1.0" standalone="no"?>
<!DOCTYPE svg PUBLIC "-//W3C//DTD SVG 20010904//EN"
 "http://www.w3.org/TR/2001/REC-SVG-20010904/DTD/svg10.dtd">
<svg version="1.0" xmlns="http://www.w3.org/2000/svg"
 width="256.000000pt" height="256.000000pt" viewBox="0 0 256.000000 256.000000"
 preserveAspectRatio="xMidYMid meet">
<metadata>
Created by potrace 1.14, written by Peter Selinger 2001-2017
</metadata>
<g transform="translate(0.000000,256.000000) scale(0.100000,-0.100000)"
fill="#000000" stroke="none">
<path d="M702 1508 c3 -461 5 -486 24 -538 41 -108 77 -165 148 -236 179 -177
433 -218 666 -107 54 26 95 56 146 107 63 63 122 148 116 169 -1 4 2 7 6 7 7
0 23 50 39 120 13 56 13 163 -1 227 -32 152 -111 271 -246 368 -30 22 -56 39
-57 37 -2 -1 -17 5 -33 13 -17 9 -30 13 -30 9 0 -4 -6 -2 -13 4 -7 6 -26 13
-42 16 -17 3 -41 8 -55 11 -88 19 -233 -2 -337 -50 l-52 -24 -122 175 c-86
122 -127 174 -141 174 -19 0 -19 -13 -16 -482z m686 -102 c67 -29 116 -74 149
-140 27 -51 27 -53 30 -298 1 -137 -2 -250 -7 -253 -5 -3 -30 27 -57 66 -81
120 -71 112 -123 94 -44 -16 -123 -21 -166 -12 -41 10 -109 50 -142 83 -46 47
-74 116 -75 183 -1 81 7 113 43 168 78 118 222 164 348 109z"/>
</g>
</svg>
