<?xml version="1.0" standalone="no"?>
<!DOCTYPE svg PUBLIC "-//W3C//DTD SVG 20010904//EN"
 "http://www.w3.org/TR/2001/REC-SVG-20010904/DTD/svg10.dtd">
<svg version="1.0" xmlns="http://www.w3.org/2000/svg"
 width="700.000000pt" height="700.000000pt" viewBox="0 0 700.000000 700.000000"
 preserveAspectRatio="xMidYMid meet">
<metadata>
Created by potrace 1.14, written by Peter Selinger 2001-2017
</metadata>
<g transform="translate(0.000000,700.000000) scale(0.100000,-0.100000)"
fill="#000000" stroke="none">
<path d="M3320 4940 c-531 -74 -968 -410 -1170 -899 -26 -64 -64 -190 -84
-282 l-6 -26 -82 24 c-114 34 -283 42 -397 19 -282 -57 -504 -228 -626 -480
-69 -144 -80 -195 -80 -386 1 -161 1 -168 34 -262 44 -128 106 -232 194 -325
121 -128 254 -208 422 -255 l80 -23 1690 -3 c1178 -2 1719 0 1787 8 270 31
489 134 687 325 156 150 258 323 318 541 26 93 28 111 27 294 0 179 -2 203
-26 293 -90 331 -313 601 -622 752 -159 78 -274 106 -461 112 -112 4 -171 1
-234 -11 -47 -8 -85 -15 -86 -13 0 1 -27 35 -60 75 -199 248 -506 433 -833
502 -111 24 -368 34 -472 20z"/>
</g>
</svg>
