<svg width="216" height="221" viewBox="0 0 216 221" fill="none" xmlns="http://www.w3.org/2000/svg">
  <mask id="mask0_503_13457" style="mask-type:luminance" maskUnits="userSpaceOnUse" x="24" y="24" width="168" height="169">
    <circle cx="108" cy="108" r="84" fill="white"/>
  </mask>
  <g mask="url(#mask0_503_13457)">
    <circle cx="108" cy="108" r="84" fill="url(#paint0_linear_503_13457)"/>
    <g style="mix-blend-mode:color-burn" opacity="0.04">
      <path fill-rule="evenodd" clip-rule="evenodd" d="M33.0002 32.9989C26.3728 32.9989 21.0002 38.3715 21.0002 44.9989C21.0002 51.6263 26.3728 56.9989 33.0002 56.9989H54.0002C60.6276 56.9989 66.0002 51.6263 66.0002 44.9989C66.0002 38.3715 60.6276 32.9989 54.0002 32.9989H33.0002ZM141 81.0007C134.373 81.0007 129 86.3733 129 93.0007C129 99.6282 134.373 105.001 141 105.001H213C219.628 105.001 225 99.6282 225 93.0007C225 86.3733 219.628 81.0007 213 81.0007H141ZM108 165C108 158.372 113.373 153 120 153H192C198.628 153 204 158.372 204 165C204 171.627 198.628 177 192 177H120C113.373 177 108 171.627 108 165ZM30.0001 129C23.3727 129 18.0001 134.373 18.0001 141C18.0001 147.627 23.3727 153 30.0001 153H78.0001C84.6275 153 90.0001 147.627 90.0001 141C90.0001 134.373 84.6275 129 78.0001 129H30.0001ZM12.0001 101.999C12.0001 98.6856 14.6864 95.9993 18.0001 95.9993H45.0001C48.3138 95.9993 51.0001 98.6856 51.0001 101.999C51.0001 105.313 48.3138 107.999 45.0001 107.999H18.0001C14.6864 107.999 12.0001 105.313 12.0001 101.999ZM18.0001 68.9996C14.6864 68.9996 12.0001 71.6859 12.0001 74.9996C12.0001 78.3133 14.6864 80.9996 18.0001 80.9996H102C105.314 80.9996 108 78.3133 108 74.9996C108 71.6859 105.314 68.9996 102 68.9996H18.0001ZM90 38.9989C90 35.6852 92.6863 32.9989 96 32.9989H180C183.314 32.9989 186 35.6852 186 38.9989C186 42.3126 183.314 44.9989 180 44.9989H96C92.6863 44.9989 90 42.3126 90 38.9989ZM6.00009 171C2.68638 171 9.15527e-05 173.686 9.15527e-05 177C9.15527e-05 180.314 2.68638 183 6.00009 183H90.0001C93.3138 183 96.0001 180.314 96.0001 177C96.0001 173.686 93.3138 171 90.0001 171H6.00009ZM129 63.0011C129 59.6874 131.686 57.0011 135 57.0011H219C222.314 57.0011 225 59.6874 225 63.0011C225 66.3148 222.314 69.0011 219 69.0011H135C131.686 69.0011 129 66.3148 129 63.0011ZM118.6 116.999C113.74 116.999 109.8 120.939 109.8 125.799C109.8 130.659 113.74 134.599 118.6 134.599H191.4C196.261 134.599 200.2 130.659 200.2 125.799C200.2 120.939 196.26 116.999 191.4 116.999H118.6Z" fill="black"/>
    </g>
  </g>
  <g opacity="0.1">
    <circle cx="108" cy="108" r="66" fill="#F3A02A" style="mix-blend-mode:multiply"/>
  </g>
  <g filter="url(#filter0_d_503_13457)">
    <path fill-rule="evenodd" clip-rule="evenodd" d="M84 108H132V205.009C132 207.272 129.591 208.72 127.593 207.659L108 197.25L88.4075 207.659C86.4093 208.72 84 207.272 84 205.009V108Z" fill="#F56123"/>
  </g>
  <circle style="mix-blend-mode:multiply" opacity="0.2" cx="108" cy="114" r="60" fill="#F0BA6E"/>
  <g filter="url(#filter1_d_503_13457)">
    <circle cx="108" cy="108" r="60" fill="url(#paint1_linear_503_13457)"/>
  </g>
  <mask id="mask1_503_13457" style="mask-type:luminance" maskUnits="userSpaceOnUse" x="48" y="48" width="120" height="120">
    <circle cx="108" cy="108" r="60" fill="white"/>
  </mask>
  <g mask="url(#mask1_503_13457)">
    <path d="M49.5 108C49.5 140.308 75.6913 166.5 108 166.5C140.309 166.5 166.5 140.308 166.5 108" stroke="#DA913B" stroke-width="3"/>
    <path d="M149.366 149.366C159.952 138.779 166.5 124.154 166.5 108C166.5 99.197 164.556 90.8484 161.073 83.3599" stroke="#E1A04B" stroke-width="3" stroke-linecap="round"/>
    <path d="M154.185 72.0907C143.481 58.343 126.773 49.5 108 49.5C75.6913 49.5 49.5 75.6913 49.5 108C49.5 124.154 56.0478 138.779 66.6343 149.366" stroke="#E1A04B" stroke-width="3" stroke-linecap="round"/>
    <path opacity="0.6" d="M154.201 72.1104C143.497 58.3514 126.782 49.5 108 49.5C89.1111 49.5 72.3131 58.4523 61.6175 72.3455" stroke="#FFC875" stroke-width="3" stroke-linecap="round"/>
    <path opacity="0.8" d="M108 49.5C97.0255 49.5 86.7567 52.522 77.9805 57.7793" stroke="#FFECD0" stroke-width="3" stroke-linecap="round"/>
    <g style="mix-blend-mode:multiply" opacity="0.2">
      <rect x="119.517" y="121.77" width="30" height="105" rx="15" transform="rotate(45 119.517 121.77)" stroke="#EBB570" stroke-width="6"/>
    </g>
    <g style="mix-blend-mode:multiply" opacity="0.2">
      <path d="M114.136 140.11C116.272 137.974 119.735 137.974 121.871 140.11C124.007 142.246 124.007 145.71 121.871 147.846L63.8456 205.871C61.7096 208.007 58.2464 208.007 56.1103 205.871C53.9743 203.735 53.9743 200.272 56.1103 198.136L114.136 140.11Z" stroke="#EBB570" stroke-width="6"/>
    </g>
    <g style="mix-blend-mode:multiply" opacity="0.2">
      <path d="M0.133177 85.1095C14.42 70.8227 37.5834 70.8227 51.8702 85.1095C66.157 99.3963 66.157 122.56 51.8702 136.847L37.8464 150.87C23.5596 165.157 0.396111 165.157 -13.8907 150.87C-28.1775 136.584 -28.1775 113.42 -13.8907 99.1333L0.133177 85.1095Z" stroke="#EBB570" stroke-width="6"/>
    </g>
    <g style="mix-blend-mode:multiply" opacity="0.2">
      <rect x="161.517" y="25.7704" width="30" height="105" rx="15" transform="rotate(45 161.517 25.7704)" stroke="#EBB570" stroke-width="6"/>
    </g>
    <g style="mix-blend-mode:multiply" opacity="0.2">
      <path d="M164.388 36.377C166.524 34.241 169.987 34.241 172.123 36.377C174.259 38.513 174.259 41.9762 172.123 44.1123L105.612 110.623C103.476 112.759 100.013 112.759 97.8769 110.623C95.7408 108.487 95.7408 105.024 97.8769 102.888L164.388 36.377Z" stroke="#EBB570" stroke-width="6"/>
    </g>
  </g>
  <g filter="url(#filter2_d_503_13457)">
    <circle cx="108" cy="108" r="45" fill="url(#paint2_linear_503_13457)"/>
    <circle cx="108" cy="108" r="46.5" stroke="#D78834" stroke-opacity="0.06" stroke-width="3"/>
  </g>
  <mask id="mask2_503_13457" style="mask-type:luminance" maskUnits="userSpaceOnUse" x="63" y="63" width="90" height="90">
    <circle cx="108" cy="108" r="45" fill="white"/>
  </mask>
  <g mask="url(#mask2_503_13457)">
    <g style="mix-blend-mode:multiply" opacity="0.2">
      <path d="M6.13318 85.1095C20.42 70.8227 43.5834 70.8227 57.8702 85.1095C72.157 99.3963 72.157 122.56 57.8702 136.847L43.8464 150.87C29.5596 165.157 6.39611 165.157 -7.89069 150.87C-22.1775 136.584 -22.1775 113.42 -7.89069 99.1333L6.13318 85.1095Z" stroke="#EBB570" stroke-width="6"/>
    </g>
    <g style="mix-blend-mode:multiply" opacity="0.2">
      <rect x="168.489" y="4.24264" width="30" height="105" rx="15" transform="rotate(45 168.489 4.24264)" stroke="#EBB570" stroke-width="6"/>
    </g>
    <g style="mix-blend-mode:multiply" opacity="0.2">
      <rect x="122.517" y="115.77" width="30" height="105" rx="15" transform="rotate(45 122.517 115.77)" stroke="#EBB570" stroke-width="6"/>
    </g>
    <g style="mix-blend-mode:multiply" opacity="0.2">
      <path d="M171.136 14.1103C173.272 11.9742 176.735 11.9742 178.871 14.1103C181.007 16.2463 181.007 19.7095 178.871 21.8456L120.846 79.8712C118.71 82.0073 115.246 82.0073 113.11 79.8712C110.974 77.7352 110.974 74.272 113.11 72.1359L171.136 14.1103Z" stroke="#EBB570" stroke-width="6"/>
    </g>
    <g style="mix-blend-mode:multiply" opacity="0.2">
      <path d="M116.164 134.638C118.3 132.502 121.763 132.502 123.899 134.638C126.035 136.774 126.035 140.237 123.899 142.373L65.8733 200.399C63.7373 202.535 60.2741 202.535 58.138 200.399C56.002 198.263 56.002 194.8 58.138 192.664L116.164 134.638Z" stroke="#EBB570" stroke-width="6"/>
    </g>
    <path opacity="0.8" d="M108 64.5C102.102 64.5 96.4783 65.6738 91.3495 67.8005" stroke="#FFECD0" stroke-width="3" stroke-linecap="round"/>
  </g>
  <g filter="url(#filter3_d_503_13457)">
    <mask id="path-28-outside-1_503_13457" maskUnits="userSpaceOnUse" x="81" y="75" width="54" height="57" fill="black">
      <rect fill="white" x="81" y="75" width="54" height="57"/>
      <path fill-rule="evenodd" clip-rule="evenodd" d="M121.5 78C121.5 78 118.5 78 114 81C111.134 82.9109 109.484 85.4304 108.665 87.0079C108.444 87.0026 108.222 87 108 87C94.7452 87 84 96.402 84 108C84 119.598 94.7452 129 108 129C121.255 129 132 119.598 132 108C132 100.902 127.975 94.6264 121.814 90.8252C121.758 90.5843 121.655 90.3102 121.5 90C118.5 84 121.5 78 121.5 78Z"/>
    </mask>
    <path fill-rule="evenodd" clip-rule="evenodd" d="M121.5 78C121.5 78 118.5 78 114 81C111.134 82.9109 109.484 85.4304 108.665 87.0079C108.444 87.0026 108.222 87 108 87C94.7452 87 84 96.402 84 108C84 119.598 94.7452 129 108 129C121.255 129 132 119.598 132 108C132 100.902 127.975 94.6264 121.814 90.8252C121.758 90.5843 121.655 90.3102 121.5 90C118.5 84 121.5 78 121.5 78Z" fill="white"/>
    <path d="M114 81L112.336 78.5038V78.5038L114 81ZM121.5 78L124.183 79.3416C124.648 78.4117 124.599 77.3073 124.052 76.4228C123.505 75.5384 122.54 75 121.5 75V78ZM108.665 87.0079L108.593 90.0071C109.738 90.0343 110.799 89.4073 111.327 88.3911L108.665 87.0079ZM121.814 90.8252L118.891 91.5025C119.072 92.2826 119.557 92.958 120.239 93.3784L121.814 90.8252ZM121.5 90L124.183 88.6584L124.183 88.6584L121.5 90ZM115.664 83.4962C117.653 82.17 119.245 81.5501 120.262 81.2596C120.772 81.1137 121.145 81.0489 121.357 81.0206C121.464 81.0064 121.531 81.0012 121.555 80.9996C121.568 80.9988 121.57 80.9989 121.56 80.9992C121.556 80.9994 121.549 80.9996 121.538 80.9997C121.533 80.9998 121.528 80.9999 121.521 80.9999C121.518 80.9999 121.515 81 121.511 81C121.509 81 121.508 81 121.506 81C121.505 81 121.503 81 121.503 81C121.501 81 121.5 81 121.5 78C121.5 75 121.499 75 121.497 75C121.497 75 121.495 75 121.494 75C121.492 75 121.49 75 121.488 75C121.483 75 121.479 75.0001 121.474 75.0001C121.465 75.0002 121.455 75.0003 121.444 75.0005C121.422 75.0008 121.398 75.0014 121.37 75.0022C121.315 75.004 121.248 75.007 121.169 75.0121C121.012 75.0222 120.81 75.0405 120.564 75.0732C120.074 75.1386 119.415 75.2613 118.613 75.4904C117.005 75.9499 114.847 76.83 112.336 78.5038L115.664 83.4962ZM111.327 88.3911C112.006 87.0847 113.359 85.0327 115.664 83.4962L112.336 78.5038C108.908 80.7892 106.963 83.7762 106.003 85.6247L111.327 88.3911ZM108 90C108.199 90 108.396 90.0024 108.593 90.0071L108.736 84.0088C108.492 84.0029 108.246 84 108 84V90ZM87 108C87 98.4226 96.0132 90 108 90V84C93.4771 84 81 94.3814 81 108H87ZM108 126C96.0132 126 87 117.577 87 108H81C81 121.619 93.4771 132 108 132V126ZM129 108C129 117.577 119.987 126 108 126V132C122.523 132 135 121.619 135 108H129ZM120.239 93.3784C125.659 96.7221 129 102.101 129 108H135C135 99.7026 130.292 92.5307 123.389 88.272L120.239 93.3784ZM118.817 91.3416C118.856 91.4192 118.878 91.4722 118.889 91.5023C118.901 91.5328 118.898 91.5318 118.891 91.5025L124.736 90.1479C124.613 89.6157 124.412 89.1151 124.183 88.6584L118.817 91.3416ZM121.5 78C118.817 76.6584 118.816 76.6594 118.816 76.6605C118.815 76.6609 118.815 76.662 118.814 76.6628C118.814 76.6644 118.813 76.6661 118.812 76.6679C118.81 76.6715 118.808 76.6754 118.806 76.6797C118.802 76.6884 118.797 76.6985 118.791 76.7102C118.78 76.7334 118.766 76.7627 118.75 76.7978C118.717 76.8679 118.674 76.9614 118.624 77.0767C118.524 77.3071 118.394 77.6263 118.253 78.0222C117.971 78.8107 117.638 79.9227 117.416 81.2568C116.973 83.9109 116.947 87.6023 118.817 91.3416L124.183 88.6584C123.053 86.3977 123.027 84.0891 123.334 82.2432C123.487 81.3273 123.716 80.5643 123.903 80.0403C123.996 79.7799 124.077 79.5836 124.13 79.4624C124.156 79.4019 124.175 79.3606 124.184 79.3399C124.189 79.3296 124.192 79.3244 124.192 79.3246C124.192 79.3247 124.191 79.3262 124.19 79.329C124.189 79.3304 124.188 79.3322 124.187 79.3343C124.186 79.3353 124.186 79.3365 124.185 79.3377C124.185 79.3383 124.184 79.3393 124.184 79.3396C124.184 79.3406 124.183 79.3416 121.5 78Z" fill="white" mask="url(#path-28-outside-1_503_13457)"/>
  </g>
  <g filter="url(#filter4_i_503_13457)">
    <path fill-rule="evenodd" clip-rule="evenodd" d="M121.5 78C121.5 78 118.5 78 114 81C111.134 82.9109 109.484 85.4304 108.665 87.0079C108.444 87.0026 108.222 87 108 87C94.7452 87 84 96.402 84 108C84 119.598 94.7452 129 108 129C121.255 129 132 119.598 132 108C132 101.229 128.338 95.2063 122.652 91.3661C122.152 90.889 121.697 90.3942 121.5 90C118.5 84 121.5 78 121.5 78Z" fill="url(#paint3_linear_503_13457)"/>
  </g>
  <path d="M114 81L112.336 78.5038V78.5038L114 81ZM121.5 78L124.183 79.3416C124.648 78.4117 124.599 77.3073 124.052 76.4228C123.505 75.5384 122.54 75 121.5 75V78ZM108.665 87.0079L108.593 90.0071C109.738 90.0343 110.799 89.4073 111.327 88.3911L108.665 87.0079ZM122.652 91.3661L120.581 93.5366C120.702 93.6526 120.833 93.7582 120.973 93.8522L122.652 91.3661ZM121.5 90L124.183 88.6584L124.183 88.6584L121.5 90ZM115.664 83.4962C117.653 82.17 119.245 81.5501 120.262 81.2596C120.772 81.1137 121.145 81.0489 121.357 81.0206C121.464 81.0064 121.531 81.0012 121.555 80.9996C121.568 80.9988 121.57 80.9989 121.56 80.9992C121.556 80.9994 121.549 80.9996 121.538 80.9997C121.533 80.9998 121.528 80.9999 121.521 80.9999C121.518 80.9999 121.515 81 121.511 81C121.509 81 121.508 81 121.506 81C121.505 81 121.503 81 121.503 81C121.501 81 121.5 81 121.5 78C121.5 75 121.499 75 121.497 75C121.497 75 121.495 75 121.494 75C121.492 75 121.49 75 121.488 75C121.483 75 121.479 75.0001 121.474 75.0001C121.465 75.0002 121.455 75.0003 121.444 75.0005C121.422 75.0008 121.398 75.0014 121.37 75.0022C121.315 75.004 121.248 75.007 121.169 75.0121C121.012 75.0222 120.81 75.0405 120.564 75.0732C120.074 75.1386 119.415 75.2613 118.613 75.4904C117.005 75.9499 114.847 76.83 112.336 78.5038L115.664 83.4962ZM111.327 88.3911C112.006 87.0847 113.359 85.0327 115.664 83.4962L112.336 78.5038C108.908 80.7892 106.963 83.7762 106.003 85.6247L111.327 88.3911ZM108 90C108.199 90 108.396 90.0024 108.593 90.0071L108.736 84.0088C108.492 84.0029 108.246 84 108 84V90ZM87 108C87 98.4226 96.0132 90 108 90V84C93.4771 84 81 94.3814 81 108H87ZM108 126C96.0132 126 87 117.577 87 108H81C81 121.619 93.4771 132 108 132V126ZM129 108C129 117.577 119.987 126 108 126V132C122.523 132 135 121.619 135 108H129ZM120.973 93.8522C125.96 97.2206 129 102.37 129 108H135C135 100.088 130.715 93.1921 124.331 88.88L120.973 93.8522ZM118.817 91.3416C119.276 92.2605 120.101 93.079 120.581 93.5366L124.723 89.1956C124.512 88.995 124.348 88.8251 124.233 88.6918C124.177 88.6267 124.146 88.5857 124.133 88.5677C124.117 88.5458 124.143 88.5779 124.183 88.6584L118.817 91.3416ZM121.5 78C118.817 76.6584 118.816 76.6594 118.816 76.6605C118.815 76.6609 118.815 76.662 118.814 76.6628C118.814 76.6644 118.813 76.6661 118.812 76.6679C118.81 76.6715 118.808 76.6754 118.806 76.6797C118.802 76.6884 118.797 76.6985 118.791 76.7102C118.78 76.7334 118.766 76.7627 118.75 76.7978C118.717 76.8679 118.674 76.9614 118.624 77.0767C118.524 77.3071 118.394 77.6263 118.253 78.0222C117.971 78.8107 117.638 79.9227 117.416 81.2568C116.973 83.9109 116.947 87.6023 118.817 91.3416L124.183 88.6584C123.053 86.3977 123.027 84.0891 123.334 82.2432C123.487 81.3273 123.716 80.5643 123.903 80.0403C123.996 79.7799 124.077 79.5836 124.13 79.4624C124.156 79.4019 124.175 79.3606 124.184 79.3399C124.189 79.3296 124.192 79.3244 124.192 79.3246C124.192 79.3247 124.191 79.3262 124.19 79.329C124.189 79.3304 124.188 79.3322 124.187 79.3343C124.186 79.3353 124.186 79.3365 124.185 79.3377C124.185 79.3383 124.184 79.3393 124.184 79.3396C124.184 79.3406 124.183 79.3416 121.5 78Z" fill="#FFECD0"/>
  <circle cx="99.75" cy="105.75" r="3.75" fill="#FFECD0"/>
  <circle cx="116.25" cy="105.75" r="3.75" fill="#FFECD0"/>
  <defs>
    <filter id="filter0_d_503_13457" x="78" y="108" width="60" height="112.013" filterUnits="userSpaceOnUse" color-interpolation-filters="sRGB">
      <feFlood flood-opacity="0" result="BackgroundImageFix"/>
      <feColorMatrix in="SourceAlpha" type="matrix" values="0 0 0 0 0 0 0 0 0 0 0 0 0 0 0 0 0 0 127 0" result="hardAlpha"/>
      <feOffset dy="6"/>
      <feGaussianBlur stdDeviation="3"/>
      <feColorMatrix type="matrix" values="0 0 0 0 0.937255 0 0 0 0 0.67451 0 0 0 0 0.235294 0 0 0 0.2 0"/>
      <feBlend mode="darken" in2="BackgroundImageFix" result="effect1_dropShadow_503_13457"/>
      <feBlend mode="normal" in="SourceGraphic" in2="effect1_dropShadow_503_13457" result="shape"/>
    </filter>
    <filter id="filter1_d_503_13457" x="36" y="42" width="144" height="144" filterUnits="userSpaceOnUse" color-interpolation-filters="sRGB">
      <feFlood flood-opacity="0" result="BackgroundImageFix"/>
      <feColorMatrix in="SourceAlpha" type="matrix" values="0 0 0 0 0 0 0 0 0 0 0 0 0 0 0 0 0 0 127 0" result="hardAlpha"/>
      <feOffset dy="6"/>
      <feGaussianBlur stdDeviation="6"/>
      <feColorMatrix type="matrix" values="0 0 0 0 0.752941 0 0 0 0 0.266667 0 0 0 0 0.266667 0 0 0 0.2 0"/>
      <feBlend mode="normal" in2="BackgroundImageFix" result="effect1_dropShadow_503_13457"/>
      <feBlend mode="normal" in="SourceGraphic" in2="effect1_dropShadow_503_13457" result="shape"/>
    </filter>
    <filter id="filter2_d_503_13457" x="54" y="57" width="108" height="108" filterUnits="userSpaceOnUse" color-interpolation-filters="sRGB">
      <feFlood flood-opacity="0" result="BackgroundImageFix"/>
      <feColorMatrix in="SourceAlpha" type="matrix" values="0 0 0 0 0 0 0 0 0 0 0 0 0 0 0 0 0 0 127 0" result="hardAlpha"/>
      <feOffset dy="3"/>
      <feGaussianBlur stdDeviation="3"/>
      <feColorMatrix type="matrix" values="0 0 0 0 0.643137 0 0 0 0 0.301509 0 0 0 0 0.0196078 0 0 0 0.2 0"/>
      <feBlend mode="normal" in2="BackgroundImageFix" result="effect1_dropShadow_503_13457"/>
      <feBlend mode="normal" in="SourceGraphic" in2="effect1_dropShadow_503_13457" result="shape"/>
    </filter>
    <filter id="filter3_d_503_13457" x="75" y="72" width="66" height="69" filterUnits="userSpaceOnUse" color-interpolation-filters="sRGB">
      <feFlood flood-opacity="0" result="BackgroundImageFix"/>
      <feColorMatrix in="SourceAlpha" type="matrix" values="0 0 0 0 0 0 0 0 0 0 0 0 0 0 0 0 0 0 127 0" result="hardAlpha"/>
      <feOffset dy="3"/>
      <feGaussianBlur stdDeviation="3"/>
      <feColorMatrix type="matrix" values="0 0 0 0 0.625 0 0 0 0 0.409034 0 0 0 0 0.12934 0 0 0 0.22 0"/>
      <feBlend mode="normal" in2="BackgroundImageFix" result="effect1_dropShadow_503_13457"/>
      <feBlend mode="normal" in="SourceGraphic" in2="effect1_dropShadow_503_13457" result="shape"/>
    </filter>
    <filter id="filter4_i_503_13457" x="81" y="75" width="54" height="60" filterUnits="userSpaceOnUse" color-interpolation-filters="sRGB">
      <feFlood flood-opacity="0" result="BackgroundImageFix"/>
      <feBlend mode="normal" in="SourceGraphic" in2="BackgroundImageFix" result="shape"/>
      <feColorMatrix in="SourceAlpha" type="matrix" values="0 0 0 0 0 0 0 0 0 0 0 0 0 0 0 0 0 0 127 0" result="hardAlpha"/>
      <feOffset dy="3"/>
      <feGaussianBlur stdDeviation="1.5"/>
      <feComposite in2="hardAlpha" operator="arithmetic" k2="-1" k3="1"/>
      <feColorMatrix type="matrix" values="0 0 0 0 0.801791 0 0 0 0 0.623822 0 0 0 0 0.41026 0 0 0 1 0"/>
      <feBlend mode="normal" in2="shape" result="effect1_innerShadow_503_13457"/>
    </filter>
    <linearGradient id="paint0_linear_503_13457" x1="24" y1="24" x2="24" y2="192" gradientUnits="userSpaceOnUse">
      <stop stop-color="#FFDD72"/>
      <stop offset="1" stop-color="#FFC32B"/>
    </linearGradient>
    <linearGradient id="paint1_linear_503_13457" x1="48" y1="48" x2="48" y2="168" gradientUnits="userSpaceOnUse">
      <stop stop-color="#F9C685"/>
      <stop offset="1" stop-color="#DB963B"/>
    </linearGradient>
    <linearGradient id="paint2_linear_503_13457" x1="63" y1="63" x2="63" y2="153" gradientUnits="userSpaceOnUse">
      <stop stop-color="#FDDA9D"/>
      <stop offset="1" stop-color="#EFB35E"/>
    </linearGradient>
    <linearGradient id="paint3_linear_503_13457" x1="84" y1="78" x2="84" y2="129" gradientUnits="userSpaceOnUse">
      <stop stop-color="#F6C280"/>
      <stop offset="1" stop-color="#E2A65E"/>
    </linearGradient>
  </defs>
</svg>
